<svg width="40" height="40" viewBox="0 0 40 40" fill="none" xmlns="http://www.w3.org/2000/svg">
<rect width="40" height="40" rx="20" fill="#A50036"/>
<path d="M19.0153 5.83385C17.9692 6.89232 17.1076 7.44616 15.8153 7.88924C15.0769 8.1477 14.7569 8.19693 13.9199 8.1477C13.3784 8.12308 12.7999 8.06155 12.6523 8.00001C12.4061 7.92616 12.3692 7.95078 12.3692 8.22155C12.3692 8.64001 12.0492 9.51385 11.7046 10.0431L11.4092 10.4862L11.7169 10.8677C11.8769 11.0892 12.0738 11.2615 12.1353 11.2615C12.1969 11.2615 12.5292 11.04 12.8861 10.7692C13.8215 10.0554 15.4707 9.23078 16.7507 8.84924C17.7599 8.52924 18.0061 8.50462 19.9999 8.50462C21.9938 8.50462 22.2399 8.52924 23.2492 8.84924C24.5292 9.23078 26.1784 10.0554 27.1138 10.7692C27.4707 11.04 27.803 11.2615 27.8646 11.2615C27.9261 11.2615 28.123 11.0892 28.283 10.88L28.5907 10.4862L28.2338 9.92001C28.0369 9.61232 27.803 9.04616 27.7046 8.67693C27.5692 8.12308 27.4953 8.01232 27.3107 8.04924C27.1753 8.07385 26.6338 8.12308 26.0799 8.1477C25.2923 8.18462 24.923 8.1477 24.2953 7.93847C22.9907 7.49539 21.9815 6.8677 20.9476 5.82155C20.4184 5.29232 19.9753 4.86155 19.963 4.87385C19.9507 4.88616 19.5199 5.31693 19.0153 5.83385Z" fill="white"/>
<path d="M19.2 9.12002C17.4646 9.39079 16.0246 10.24 15.1384 11.5077L14.7938 12L15.1384 12.4923C15.52 13.0462 16.16 13.6 17.4277 14.4862C18.4738 15.2246 19.4338 16.2708 19.6923 16.9846C19.8154 17.2923 19.9384 17.5385 19.9877 17.5262C20.0246 17.5262 20.2092 17.2062 20.3938 16.8246C20.7754 16.0123 21.4646 15.2739 22.5846 14.4862C23.8031 13.6246 24.5046 13.0092 24.8615 12.4923L25.1938 12.0123L24.8246 11.4708C24.1354 10.4862 23.0646 9.72309 21.8831 9.36617C21.1815 9.16925 19.7784 9.03386 19.2 9.12002ZM22.0061 10.3016C22.6461 10.5969 24.0615 11.7785 24.0615 12.0123C24.0615 12.1723 22.56 13.3046 21.8461 13.6739C21.2431 13.9939 21.0461 14.0308 20 14.0308C18.88 14.0308 18.7938 14.0062 17.9692 13.5631C17.5015 13.3169 16.8369 12.8616 16.5046 12.5662L15.8892 12.0369L16.1969 11.6677C16.6523 11.1016 17.4646 10.5231 18.24 10.2031C18.8554 9.94463 19.1138 9.90771 20.1231 9.93232C21.0831 9.96925 21.4154 10.0308 22.0061 10.3016Z" fill="white"/>
<path d="M19.1385 10.3877C17.44 11.2862 18.0677 13.8462 20 13.8462C21.8831 13.8462 22.5477 11.3723 20.9108 10.4369C20.32 10.0923 19.7046 10.08 19.1385 10.3877ZM20.1477 11.3354C20.4185 11.9139 19.5446 12.5785 19.1754 12.0862C18.8923 11.7292 18.8923 11.4954 19.1877 11.2C19.5323 10.8554 19.9508 10.9046 20.1477 11.3354ZM9.48924 9.79694C8.66462 10.7077 7.52001 12.4677 7.20001 13.3169C6.40001 15.4708 6.60924 17.28 7.87693 19.0031C8.88616 20.3692 10.8677 21.7477 13.0708 22.6216C13.6369 22.8308 14.0923 23.0523 14.0923 23.1016C14.0923 23.1385 13.9323 23.2123 13.7231 23.2616C13.1446 23.3846 11.9385 24.2339 11.6185 24.7508C11.3846 25.12 11.3231 25.3908 11.3354 25.9692C11.3477 27.68 12.5662 29.1692 14.9292 30.3754C15.6923 30.7569 16.4308 31.0769 16.5662 31.0769C16.9723 31.0769 17.9692 29.9692 18.4369 28.9723C19.3231 27.1508 19.7046 24.6523 19.5939 21.4769C19.4954 18.5969 19.1877 17.6 18.0062 16.3569C17.6615 15.9877 16.96 15.4339 16.4431 15.1262C12.3939 12.6277 10.4492 10.88 10.1662 9.48925L10.0923 9.13232L9.48924 9.79694ZM29.8462 9.39079C29.8339 10.6092 27.6554 12.5908 23.5569 15.1262C23.04 15.4339 22.3385 15.9877 21.9939 16.3569C20.8123 17.6 20.5046 18.5969 20.4062 21.4769C20.2954 24.6523 20.6769 27.1508 21.5631 28.9723C22.0308 29.9692 23.0277 31.0769 23.4339 31.0769C23.5692 31.0769 24.2954 30.7692 25.0462 30.3877C27.4215 29.1816 28.6523 27.68 28.6646 25.9692C28.6769 25.3908 28.6154 25.12 28.3815 24.7508C28.0615 24.2339 26.8554 23.3846 26.2769 23.2616C26.0677 23.2123 25.9077 23.1385 25.9077 23.1016C25.9077 23.0523 26.3631 22.8308 26.9292 22.6216C29.1323 21.7477 31.1139 20.3692 32.1231 19.0031C33.3908 17.28 33.6 15.4708 32.8 13.3169C32.4677 12.4308 31.3108 10.6708 30.4862 9.78463C29.9446 9.19386 29.8585 9.14463 29.8462 9.39079Z" fill="white"/>
<path d="M6.95386 20.8C6.95386 24.0862 7.80309 26.4123 9.96924 28.9969C11.8277 31.2123 15.3969 33.5754 18.9169 34.8923L19.9877 35.2985L21.0092 34.8923C26.2892 32.8 30.4123 29.3908 32.0615 25.7354C32.7385 24.2585 32.9477 23.2862 33.0092 21.3292C33.0462 20.3323 33.0462 19.4215 32.9969 19.3108C32.9354 19.1508 32.8246 19.2123 32.4431 19.6431C31.9877 20.16 31.9754 20.2215 31.9015 21.2923C31.5569 26.4738 27.8154 30.8431 22.6092 32.1477C21.3415 32.4677 18.4123 32.4308 17.12 32.0862C12.0123 30.6831 8.43078 26.4123 8.09847 21.2923C8.02463 20.2462 8.00001 20.16 7.59386 19.6923C7.3477 19.4215 7.11386 19.1754 7.05232 19.1631C7.00309 19.1385 6.95386 19.8769 6.95386 20.8Z" fill="white"/>
</svg>
